<mxfile host="app.diagrams.net" agent="Mozilla/5.0 (X11; Linux x86_64) AppleWebKit/537.36 (KHTML, like Gecko) Chrome/133.0.0.0 Safari/537.36" version="26.0.15" pages="2">
  <diagram id="OWAr1SZFIpN9eFkTxH3F" name="theory">
    <mxGraphModel dx="1783" dy="496" grid="0" gridSize="10" guides="1" tooltips="1" connect="1" arrows="1" fold="1" page="1" pageScale="1" pageWidth="850" pageHeight="1100" math="0" shadow="0">
      <root>
        <mxCell id="0" />
        <mxCell id="1" parent="0" />
        <mxCell id="2M_v0jbegpfYsW7TP-_k-1" value="IPublisher" style="swimlane;fontStyle=1;align=center;verticalAlign=top;childLayout=stackLayout;horizontal=1;startSize=26;horizontalStack=0;resizeParent=1;resizeParentMax=0;resizeLast=0;collapsible=1;marginBottom=0;whiteSpace=wrap;html=1;" vertex="1" parent="1">
          <mxGeometry x="169.5" y="496" width="253" height="112" as="geometry" />
        </mxCell>
        <mxCell id="2M_v0jbegpfYsW7TP-_k-2" value="" style="line;strokeWidth=1;fillColor=none;align=left;verticalAlign=middle;spacingTop=-1;spacingLeft=3;spacingRight=3;rotatable=0;labelPosition=right;points=[];portConstraint=eastwest;strokeColor=inherit;" vertex="1" parent="2M_v0jbegpfYsW7TP-_k-1">
          <mxGeometry y="26" width="253" height="8" as="geometry" />
        </mxCell>
        <mxCell id="2M_v0jbegpfYsW7TP-_k-3" value="+ add_subscriber( sub : ISubscriber)" style="text;strokeColor=none;fillColor=none;align=left;verticalAlign=top;spacingLeft=4;spacingRight=4;overflow=hidden;rotatable=0;points=[[0,0.5],[1,0.5]];portConstraint=eastwest;whiteSpace=wrap;html=1;" vertex="1" parent="2M_v0jbegpfYsW7TP-_k-1">
          <mxGeometry y="34" width="253" height="26" as="geometry" />
        </mxCell>
        <mxCell id="2M_v0jbegpfYsW7TP-_k-4" value="+ remove_subscriber( sub : ISubscriber)" style="text;strokeColor=none;fillColor=none;align=left;verticalAlign=top;spacingLeft=4;spacingRight=4;overflow=hidden;rotatable=0;points=[[0,0.5],[1,0.5]];portConstraint=eastwest;whiteSpace=wrap;html=1;" vertex="1" parent="2M_v0jbegpfYsW7TP-_k-1">
          <mxGeometry y="60" width="253" height="26" as="geometry" />
        </mxCell>
        <mxCell id="2M_v0jbegpfYsW7TP-_k-5" value="+ notify_subscribers( )" style="text;strokeColor=none;fillColor=none;align=left;verticalAlign=top;spacingLeft=4;spacingRight=4;overflow=hidden;rotatable=0;points=[[0,0.5],[1,0.5]];portConstraint=eastwest;whiteSpace=wrap;html=1;" vertex="1" parent="2M_v0jbegpfYsW7TP-_k-1">
          <mxGeometry y="86" width="253" height="26" as="geometry" />
        </mxCell>
        <mxCell id="2M_v0jbegpfYsW7TP-_k-6" value="ISubscriber" style="swimlane;fontStyle=1;align=center;verticalAlign=top;childLayout=stackLayout;horizontal=1;startSize=26;horizontalStack=0;resizeParent=1;resizeParentMax=0;resizeLast=0;collapsible=1;marginBottom=0;whiteSpace=wrap;html=1;" vertex="1" parent="1">
          <mxGeometry x="570" y="539" width="212" height="60" as="geometry" />
        </mxCell>
        <mxCell id="2M_v0jbegpfYsW7TP-_k-7" value="" style="line;strokeWidth=1;fillColor=none;align=left;verticalAlign=middle;spacingTop=-1;spacingLeft=3;spacingRight=3;rotatable=0;labelPosition=right;points=[];portConstraint=eastwest;strokeColor=inherit;" vertex="1" parent="2M_v0jbegpfYsW7TP-_k-6">
          <mxGeometry y="26" width="212" height="8" as="geometry" />
        </mxCell>
        <mxCell id="2M_v0jbegpfYsW7TP-_k-8" value="+ notify( info : string)" style="text;strokeColor=none;fillColor=none;align=left;verticalAlign=top;spacingLeft=4;spacingRight=4;overflow=hidden;rotatable=0;points=[[0,0.5],[1,0.5]];portConstraint=eastwest;whiteSpace=wrap;html=1;" vertex="1" parent="2M_v0jbegpfYsW7TP-_k-6">
          <mxGeometry y="34" width="212" height="26" as="geometry" />
        </mxCell>
        <mxCell id="2M_v0jbegpfYsW7TP-_k-9" value="ConcretePublisher" style="swimlane;fontStyle=1;align=center;verticalAlign=top;childLayout=stackLayout;horizontal=1;startSize=26;horizontalStack=0;resizeParent=1;resizeParentMax=0;resizeLast=0;collapsible=1;marginBottom=0;whiteSpace=wrap;html=1;" vertex="1" parent="1">
          <mxGeometry x="182.5" y="692" width="227" height="190" as="geometry" />
        </mxCell>
        <mxCell id="2M_v0jbegpfYsW7TP-_k-10" value="- subscribers : vector&amp;lt;ISubscriber&amp;gt;" style="text;strokeColor=none;fillColor=none;align=left;verticalAlign=top;spacingLeft=4;spacingRight=4;overflow=hidden;rotatable=0;points=[[0,0.5],[1,0.5]];portConstraint=eastwest;whiteSpace=wrap;html=1;" vertex="1" parent="2M_v0jbegpfYsW7TP-_k-9">
          <mxGeometry y="26" width="227" height="26" as="geometry" />
        </mxCell>
        <mxCell id="2M_v0jbegpfYsW7TP-_k-11" value="- member_attributes..." style="text;strokeColor=none;fillColor=none;align=left;verticalAlign=top;spacingLeft=4;spacingRight=4;overflow=hidden;rotatable=0;points=[[0,0.5],[1,0.5]];portConstraint=eastwest;whiteSpace=wrap;html=1;" vertex="1" parent="2M_v0jbegpfYsW7TP-_k-9">
          <mxGeometry y="52" width="227" height="26" as="geometry" />
        </mxCell>
        <mxCell id="2M_v0jbegpfYsW7TP-_k-12" value="" style="line;strokeWidth=1;fillColor=none;align=left;verticalAlign=middle;spacingTop=-1;spacingLeft=3;spacingRight=3;rotatable=0;labelPosition=right;points=[];portConstraint=eastwest;strokeColor=inherit;" vertex="1" parent="2M_v0jbegpfYsW7TP-_k-9">
          <mxGeometry y="78" width="227" height="8" as="geometry" />
        </mxCell>
        <mxCell id="2M_v0jbegpfYsW7TP-_k-13" value="+ add_subscriber(sub : ISubscriber)" style="text;strokeColor=none;fillColor=none;align=left;verticalAlign=top;spacingLeft=4;spacingRight=4;overflow=hidden;rotatable=0;points=[[0,0.5],[1,0.5]];portConstraint=eastwest;whiteSpace=wrap;html=1;" vertex="1" parent="2M_v0jbegpfYsW7TP-_k-9">
          <mxGeometry y="86" width="227" height="26" as="geometry" />
        </mxCell>
        <mxCell id="2M_v0jbegpfYsW7TP-_k-14" value="+ remove_subscriber(sub : ISubscriber)" style="text;strokeColor=none;fillColor=none;align=left;verticalAlign=top;spacingLeft=4;spacingRight=4;overflow=hidden;rotatable=0;points=[[0,0.5],[1,0.5]];portConstraint=eastwest;whiteSpace=wrap;html=1;" vertex="1" parent="2M_v0jbegpfYsW7TP-_k-9">
          <mxGeometry y="112" width="227" height="26" as="geometry" />
        </mxCell>
        <mxCell id="2M_v0jbegpfYsW7TP-_k-16" value="+ notify_subscribers( )" style="text;strokeColor=none;fillColor=none;align=left;verticalAlign=top;spacingLeft=4;spacingRight=4;overflow=hidden;rotatable=0;points=[[0,0.5],[1,0.5]];portConstraint=eastwest;whiteSpace=wrap;html=1;" vertex="1" parent="2M_v0jbegpfYsW7TP-_k-9">
          <mxGeometry y="138" width="227" height="26" as="geometry" />
        </mxCell>
        <mxCell id="2M_v0jbegpfYsW7TP-_k-29" value="+ member_methods..." style="text;strokeColor=none;fillColor=none;align=left;verticalAlign=top;spacingLeft=4;spacingRight=4;overflow=hidden;rotatable=0;points=[[0,0.5],[1,0.5]];portConstraint=eastwest;whiteSpace=wrap;html=1;" vertex="1" parent="2M_v0jbegpfYsW7TP-_k-9">
          <mxGeometry y="164" width="227" height="26" as="geometry" />
        </mxCell>
        <mxCell id="2M_v0jbegpfYsW7TP-_k-17" value="ConcreteSubscriber" style="swimlane;fontStyle=1;align=center;verticalAlign=top;childLayout=stackLayout;horizontal=1;startSize=26;horizontalStack=0;resizeParent=1;resizeParentMax=0;resizeLast=0;collapsible=1;marginBottom=0;whiteSpace=wrap;html=1;" vertex="1" parent="1">
          <mxGeometry x="596" y="686" width="160" height="86" as="geometry" />
        </mxCell>
        <mxCell id="2M_v0jbegpfYsW7TP-_k-18" value="- member_attributes..." style="text;strokeColor=none;fillColor=none;align=left;verticalAlign=top;spacingLeft=4;spacingRight=4;overflow=hidden;rotatable=0;points=[[0,0.5],[1,0.5]];portConstraint=eastwest;whiteSpace=wrap;html=1;" vertex="1" parent="2M_v0jbegpfYsW7TP-_k-17">
          <mxGeometry y="26" width="160" height="26" as="geometry" />
        </mxCell>
        <mxCell id="2M_v0jbegpfYsW7TP-_k-19" value="" style="line;strokeWidth=1;fillColor=none;align=left;verticalAlign=middle;spacingTop=-1;spacingLeft=3;spacingRight=3;rotatable=0;labelPosition=right;points=[];portConstraint=eastwest;strokeColor=inherit;" vertex="1" parent="2M_v0jbegpfYsW7TP-_k-17">
          <mxGeometry y="52" width="160" height="8" as="geometry" />
        </mxCell>
        <mxCell id="2M_v0jbegpfYsW7TP-_k-20" value="+ notify( info : string)" style="text;strokeColor=none;fillColor=none;align=left;verticalAlign=top;spacingLeft=4;spacingRight=4;overflow=hidden;rotatable=0;points=[[0,0.5],[1,0.5]];portConstraint=eastwest;whiteSpace=wrap;html=1;" vertex="1" parent="2M_v0jbegpfYsW7TP-_k-17">
          <mxGeometry y="60" width="160" height="26" as="geometry" />
        </mxCell>
        <mxCell id="2M_v0jbegpfYsW7TP-_k-21" value="" style="endArrow=diamondThin;endFill=0;endSize=24;html=1;rounded=0;exitX=0;exitY=0.5;exitDx=0;exitDy=0;" edge="1" parent="1" source="2M_v0jbegpfYsW7TP-_k-6" target="2M_v0jbegpfYsW7TP-_k-4">
          <mxGeometry width="160" relative="1" as="geometry">
            <mxPoint x="434" y="576" as="sourcePoint" />
            <mxPoint x="486" y="716" as="targetPoint" />
          </mxGeometry>
        </mxCell>
        <mxCell id="2M_v0jbegpfYsW7TP-_k-22" value="1 to many" style="text;html=1;align=center;verticalAlign=middle;whiteSpace=wrap;rounded=0;" vertex="1" parent="1">
          <mxGeometry x="453" y="541" width="60" height="30" as="geometry" />
        </mxCell>
        <mxCell id="2M_v0jbegpfYsW7TP-_k-23" value="" style="endArrow=block;dashed=1;endFill=0;endSize=12;html=1;rounded=0;exitX=0.5;exitY=0;exitDx=0;exitDy=0;entryX=0.505;entryY=1;entryDx=0;entryDy=0;entryPerimeter=0;" edge="1" parent="1" source="2M_v0jbegpfYsW7TP-_k-9" target="2M_v0jbegpfYsW7TP-_k-5">
          <mxGeometry width="160" relative="1" as="geometry">
            <mxPoint x="522" y="665" as="sourcePoint" />
            <mxPoint x="682" y="665" as="targetPoint" />
          </mxGeometry>
        </mxCell>
        <mxCell id="2M_v0jbegpfYsW7TP-_k-24" value="" style="endArrow=block;dashed=1;endFill=0;endSize=12;html=1;rounded=0;entryX=0.5;entryY=1.077;entryDx=0;entryDy=0;entryPerimeter=0;exitX=0.5;exitY=0;exitDx=0;exitDy=0;" edge="1" parent="1" source="2M_v0jbegpfYsW7TP-_k-17" target="2M_v0jbegpfYsW7TP-_k-8">
          <mxGeometry width="160" relative="1" as="geometry">
            <mxPoint x="536" y="634" as="sourcePoint" />
            <mxPoint x="696" y="634" as="targetPoint" />
          </mxGeometry>
        </mxCell>
        <mxCell id="2M_v0jbegpfYsW7TP-_k-25" value="client" style="html=1;whiteSpace=wrap;" vertex="1" parent="1">
          <mxGeometry x="-48" y="496" width="163" height="92" as="geometry" />
        </mxCell>
        <mxCell id="2M_v0jbegpfYsW7TP-_k-27" value="Use" style="endArrow=open;endSize=12;dashed=1;html=1;rounded=0;entryX=0;entryY=0.5;entryDx=0;entryDy=0;exitX=1;exitY=0.5;exitDx=0;exitDy=0;" edge="1" parent="1" source="2M_v0jbegpfYsW7TP-_k-16" target="2M_v0jbegpfYsW7TP-_k-20">
          <mxGeometry width="160" relative="1" as="geometry">
            <mxPoint x="441" y="675" as="sourcePoint" />
            <mxPoint x="601" y="675" as="targetPoint" />
          </mxGeometry>
        </mxCell>
        <mxCell id="2M_v0jbegpfYsW7TP-_k-28" value="" style="endArrow=open;endFill=1;endSize=12;html=1;rounded=0;exitX=0.002;exitY=0.089;exitDx=0;exitDy=0;exitPerimeter=0;entryX=0.5;entryY=1;entryDx=0;entryDy=0;" edge="1" parent="1" source="2M_v0jbegpfYsW7TP-_k-9" target="2M_v0jbegpfYsW7TP-_k-25">
          <mxGeometry width="160" relative="1" as="geometry">
            <mxPoint x="344" y="588" as="sourcePoint" />
            <mxPoint x="504" y="588" as="targetPoint" />
            <Array as="points">
              <mxPoint x="34" y="706" />
            </Array>
          </mxGeometry>
        </mxCell>
      </root>
    </mxGraphModel>
  </diagram>
  <diagram name="application" id="KfYiBHLDCIO1Wbbm7GU9">
    <mxGraphModel dx="1970" dy="387" grid="0" gridSize="10" guides="1" tooltips="1" connect="1" arrows="1" fold="1" page="1" pageScale="1" pageWidth="850" pageHeight="1100" math="0" shadow="0">
      <root>
        <mxCell id="0" />
        <mxCell id="1" parent="0" />
        <mxCell id="-tC42EoGqrNfRJQ-GM8F-10" value="IPublisher" style="swimlane;fontStyle=1;align=center;verticalAlign=top;childLayout=stackLayout;horizontal=1;startSize=26;horizontalStack=0;resizeParent=1;resizeParentMax=0;resizeLast=0;collapsible=1;marginBottom=0;whiteSpace=wrap;html=1;" parent="1" vertex="1">
          <mxGeometry x="169.5" y="496" width="253" height="112" as="geometry" />
        </mxCell>
        <mxCell id="-tC42EoGqrNfRJQ-GM8F-12" value="" style="line;strokeWidth=1;fillColor=none;align=left;verticalAlign=middle;spacingTop=-1;spacingLeft=3;spacingRight=3;rotatable=0;labelPosition=right;points=[];portConstraint=eastwest;strokeColor=inherit;" parent="-tC42EoGqrNfRJQ-GM8F-10" vertex="1">
          <mxGeometry y="26" width="253" height="8" as="geometry" />
        </mxCell>
        <mxCell id="-tC42EoGqrNfRJQ-GM8F-13" value="+ add_subscriber( sub : ISubscriber)" style="text;strokeColor=none;fillColor=none;align=left;verticalAlign=top;spacingLeft=4;spacingRight=4;overflow=hidden;rotatable=0;points=[[0,0.5],[1,0.5]];portConstraint=eastwest;whiteSpace=wrap;html=1;" parent="-tC42EoGqrNfRJQ-GM8F-10" vertex="1">
          <mxGeometry y="34" width="253" height="26" as="geometry" />
        </mxCell>
        <mxCell id="-tC42EoGqrNfRJQ-GM8F-14" value="+ remove_subscriber( sub : ISubscriber)" style="text;strokeColor=none;fillColor=none;align=left;verticalAlign=top;spacingLeft=4;spacingRight=4;overflow=hidden;rotatable=0;points=[[0,0.5],[1,0.5]];portConstraint=eastwest;whiteSpace=wrap;html=1;" parent="-tC42EoGqrNfRJQ-GM8F-10" vertex="1">
          <mxGeometry y="60" width="253" height="26" as="geometry" />
        </mxCell>
        <mxCell id="-tC42EoGqrNfRJQ-GM8F-15" value="+ notify_subscribers( )" style="text;strokeColor=none;fillColor=none;align=left;verticalAlign=top;spacingLeft=4;spacingRight=4;overflow=hidden;rotatable=0;points=[[0,0.5],[1,0.5]];portConstraint=eastwest;whiteSpace=wrap;html=1;" parent="-tC42EoGqrNfRJQ-GM8F-10" vertex="1">
          <mxGeometry y="86" width="253" height="26" as="geometry" />
        </mxCell>
        <mxCell id="-tC42EoGqrNfRJQ-GM8F-16" value="ISubscriber" style="swimlane;fontStyle=1;align=center;verticalAlign=top;childLayout=stackLayout;horizontal=1;startSize=26;horizontalStack=0;resizeParent=1;resizeParentMax=0;resizeLast=0;collapsible=1;marginBottom=0;whiteSpace=wrap;html=1;" parent="1" vertex="1">
          <mxGeometry x="570" y="539" width="212" height="60" as="geometry" />
        </mxCell>
        <mxCell id="-tC42EoGqrNfRJQ-GM8F-18" value="" style="line;strokeWidth=1;fillColor=none;align=left;verticalAlign=middle;spacingTop=-1;spacingLeft=3;spacingRight=3;rotatable=0;labelPosition=right;points=[];portConstraint=eastwest;strokeColor=inherit;" parent="-tC42EoGqrNfRJQ-GM8F-16" vertex="1">
          <mxGeometry y="26" width="212" height="8" as="geometry" />
        </mxCell>
        <mxCell id="-tC42EoGqrNfRJQ-GM8F-19" value="+ notify( info : string)" style="text;strokeColor=none;fillColor=none;align=left;verticalAlign=top;spacingLeft=4;spacingRight=4;overflow=hidden;rotatable=0;points=[[0,0.5],[1,0.5]];portConstraint=eastwest;whiteSpace=wrap;html=1;" parent="-tC42EoGqrNfRJQ-GM8F-16" vertex="1">
          <mxGeometry y="34" width="212" height="26" as="geometry" />
        </mxCell>
        <mxCell id="-tC42EoGqrNfRJQ-GM8F-22" value="CommitNotifier" style="swimlane;fontStyle=1;align=center;verticalAlign=top;childLayout=stackLayout;horizontal=1;startSize=26;horizontalStack=0;resizeParent=1;resizeParentMax=0;resizeLast=0;collapsible=1;marginBottom=0;whiteSpace=wrap;html=1;" parent="1" vertex="1">
          <mxGeometry x="182.5" y="689" width="227" height="190" as="geometry" />
        </mxCell>
        <mxCell id="-tC42EoGqrNfRJQ-GM8F-26" value="- devs : vector&amp;lt;ISubscriber&amp;gt;" style="text;strokeColor=none;fillColor=none;align=left;verticalAlign=top;spacingLeft=4;spacingRight=4;overflow=hidden;rotatable=0;points=[[0,0.5],[1,0.5]];portConstraint=eastwest;whiteSpace=wrap;html=1;" parent="-tC42EoGqrNfRJQ-GM8F-22" vertex="1">
          <mxGeometry y="26" width="227" height="26" as="geometry" />
        </mxCell>
        <mxCell id="RQ_l0IiYejabrdTlGXIu-1" value="- latest_commit_hash : string" style="text;strokeColor=none;fillColor=none;align=left;verticalAlign=top;spacingLeft=4;spacingRight=4;overflow=hidden;rotatable=0;points=[[0,0.5],[1,0.5]];portConstraint=eastwest;whiteSpace=wrap;html=1;" vertex="1" parent="-tC42EoGqrNfRJQ-GM8F-22">
          <mxGeometry y="52" width="227" height="26" as="geometry" />
        </mxCell>
        <mxCell id="-tC42EoGqrNfRJQ-GM8F-24" value="" style="line;strokeWidth=1;fillColor=none;align=left;verticalAlign=middle;spacingTop=-1;spacingLeft=3;spacingRight=3;rotatable=0;labelPosition=right;points=[];portConstraint=eastwest;strokeColor=inherit;" parent="-tC42EoGqrNfRJQ-GM8F-22" vertex="1">
          <mxGeometry y="78" width="227" height="8" as="geometry" />
        </mxCell>
        <mxCell id="-tC42EoGqrNfRJQ-GM8F-25" value="+ add_subscriber(dev : ISubscriber)" style="text;strokeColor=none;fillColor=none;align=left;verticalAlign=top;spacingLeft=4;spacingRight=4;overflow=hidden;rotatable=0;points=[[0,0.5],[1,0.5]];portConstraint=eastwest;whiteSpace=wrap;html=1;" parent="-tC42EoGqrNfRJQ-GM8F-22" vertex="1">
          <mxGeometry y="86" width="227" height="26" as="geometry" />
        </mxCell>
        <mxCell id="-tC42EoGqrNfRJQ-GM8F-27" value="+ remove_subscriber(dev : ISubscriber)" style="text;strokeColor=none;fillColor=none;align=left;verticalAlign=top;spacingLeft=4;spacingRight=4;overflow=hidden;rotatable=0;points=[[0,0.5],[1,0.5]];portConstraint=eastwest;whiteSpace=wrap;html=1;" parent="-tC42EoGqrNfRJQ-GM8F-22" vertex="1">
          <mxGeometry y="112" width="227" height="26" as="geometry" />
        </mxCell>
        <mxCell id="RQ_l0IiYejabrdTlGXIu-2" value="+ set_latest_commit(hash : string)" style="text;strokeColor=none;fillColor=none;align=left;verticalAlign=top;spacingLeft=4;spacingRight=4;overflow=hidden;rotatable=0;points=[[0,0.5],[1,0.5]];portConstraint=eastwest;whiteSpace=wrap;html=1;" vertex="1" parent="-tC42EoGqrNfRJQ-GM8F-22">
          <mxGeometry y="138" width="227" height="26" as="geometry" />
        </mxCell>
        <mxCell id="-tC42EoGqrNfRJQ-GM8F-28" value="+ notify_subscribers( )" style="text;strokeColor=none;fillColor=none;align=left;verticalAlign=top;spacingLeft=4;spacingRight=4;overflow=hidden;rotatable=0;points=[[0,0.5],[1,0.5]];portConstraint=eastwest;whiteSpace=wrap;html=1;" parent="-tC42EoGqrNfRJQ-GM8F-22" vertex="1">
          <mxGeometry y="164" width="227" height="26" as="geometry" />
        </mxCell>
        <mxCell id="-tC42EoGqrNfRJQ-GM8F-30" value="Dev" style="swimlane;fontStyle=1;align=center;verticalAlign=top;childLayout=stackLayout;horizontal=1;startSize=26;horizontalStack=0;resizeParent=1;resizeParentMax=0;resizeLast=0;collapsible=1;marginBottom=0;whiteSpace=wrap;html=1;" parent="1" vertex="1">
          <mxGeometry x="596" y="686" width="160" height="86" as="geometry" />
        </mxCell>
        <mxCell id="-tC42EoGqrNfRJQ-GM8F-31" value="- user_name : string" style="text;strokeColor=none;fillColor=none;align=left;verticalAlign=top;spacingLeft=4;spacingRight=4;overflow=hidden;rotatable=0;points=[[0,0.5],[1,0.5]];portConstraint=eastwest;whiteSpace=wrap;html=1;" parent="-tC42EoGqrNfRJQ-GM8F-30" vertex="1">
          <mxGeometry y="26" width="160" height="26" as="geometry" />
        </mxCell>
        <mxCell id="-tC42EoGqrNfRJQ-GM8F-32" value="" style="line;strokeWidth=1;fillColor=none;align=left;verticalAlign=middle;spacingTop=-1;spacingLeft=3;spacingRight=3;rotatable=0;labelPosition=right;points=[];portConstraint=eastwest;strokeColor=inherit;" parent="-tC42EoGqrNfRJQ-GM8F-30" vertex="1">
          <mxGeometry y="52" width="160" height="8" as="geometry" />
        </mxCell>
        <mxCell id="-tC42EoGqrNfRJQ-GM8F-33" value="+ notify( info : string)" style="text;strokeColor=none;fillColor=none;align=left;verticalAlign=top;spacingLeft=4;spacingRight=4;overflow=hidden;rotatable=0;points=[[0,0.5],[1,0.5]];portConstraint=eastwest;whiteSpace=wrap;html=1;" parent="-tC42EoGqrNfRJQ-GM8F-30" vertex="1">
          <mxGeometry y="60" width="160" height="26" as="geometry" />
        </mxCell>
        <mxCell id="-tC42EoGqrNfRJQ-GM8F-36" value="" style="endArrow=diamondThin;endFill=0;endSize=24;html=1;rounded=0;exitX=0;exitY=0.5;exitDx=0;exitDy=0;" parent="1" source="-tC42EoGqrNfRJQ-GM8F-16" target="-tC42EoGqrNfRJQ-GM8F-14" edge="1">
          <mxGeometry width="160" relative="1" as="geometry">
            <mxPoint x="434" y="576" as="sourcePoint" />
            <mxPoint x="486" y="716" as="targetPoint" />
          </mxGeometry>
        </mxCell>
        <mxCell id="-tC42EoGqrNfRJQ-GM8F-37" value="1 to many" style="text;html=1;align=center;verticalAlign=middle;whiteSpace=wrap;rounded=0;" parent="1" vertex="1">
          <mxGeometry x="453" y="541" width="60" height="30" as="geometry" />
        </mxCell>
        <mxCell id="-tC42EoGqrNfRJQ-GM8F-51" value="" style="endArrow=block;dashed=1;endFill=0;endSize=12;html=1;rounded=0;exitX=0.5;exitY=0;exitDx=0;exitDy=0;entryX=0.505;entryY=1;entryDx=0;entryDy=0;entryPerimeter=0;" parent="1" source="-tC42EoGqrNfRJQ-GM8F-22" target="-tC42EoGqrNfRJQ-GM8F-15" edge="1">
          <mxGeometry width="160" relative="1" as="geometry">
            <mxPoint x="522" y="665" as="sourcePoint" />
            <mxPoint x="682" y="665" as="targetPoint" />
          </mxGeometry>
        </mxCell>
        <mxCell id="-tC42EoGqrNfRJQ-GM8F-52" value="" style="endArrow=block;dashed=1;endFill=0;endSize=12;html=1;rounded=0;entryX=0.5;entryY=1.077;entryDx=0;entryDy=0;entryPerimeter=0;exitX=0.5;exitY=0;exitDx=0;exitDy=0;" parent="1" source="-tC42EoGqrNfRJQ-GM8F-30" target="-tC42EoGqrNfRJQ-GM8F-19" edge="1">
          <mxGeometry width="160" relative="1" as="geometry">
            <mxPoint x="536" y="634" as="sourcePoint" />
            <mxPoint x="696" y="634" as="targetPoint" />
          </mxGeometry>
        </mxCell>
        <mxCell id="-tC42EoGqrNfRJQ-GM8F-57" value="VersionControlSystem" style="html=1;whiteSpace=wrap;" parent="1" vertex="1">
          <mxGeometry x="-48" y="496" width="163" height="92" as="geometry" />
        </mxCell>
        <mxCell id="-tC42EoGqrNfRJQ-GM8F-58" value="" style="endArrow=diamondThin;endFill=1;endSize=24;html=1;rounded=0;exitX=0.002;exitY=0.084;exitDx=0;exitDy=0;exitPerimeter=0;entryX=0.5;entryY=1;entryDx=0;entryDy=0;" parent="1" source="-tC42EoGqrNfRJQ-GM8F-22" edge="1" target="-tC42EoGqrNfRJQ-GM8F-57">
          <mxGeometry width="160" relative="1" as="geometry">
            <mxPoint x="249" y="673" as="sourcePoint" />
            <mxPoint x="99" y="597" as="targetPoint" />
            <Array as="points">
              <mxPoint x="34" y="705" />
            </Array>
          </mxGeometry>
        </mxCell>
        <mxCell id="RQ_l0IiYejabrdTlGXIu-3" value="Use" style="endArrow=open;endSize=12;dashed=1;html=1;rounded=0;entryX=0;entryY=0.5;entryDx=0;entryDy=0;exitX=1;exitY=0.5;exitDx=0;exitDy=0;" edge="1" parent="1" source="-tC42EoGqrNfRJQ-GM8F-28" target="-tC42EoGqrNfRJQ-GM8F-33">
          <mxGeometry width="160" relative="1" as="geometry">
            <mxPoint x="441" y="675" as="sourcePoint" />
            <mxPoint x="601" y="675" as="targetPoint" />
          </mxGeometry>
        </mxCell>
      </root>
    </mxGraphModel>
  </diagram>
</mxfile>
